<?xml version="1.0" encoding="UTF-8"?>
<svg xmlns="http://www.w3.org/2000/svg" xmlns:xlink="http://www.w3.org/1999/xlink" width="512pt" height="512pt" viewBox="0 0 512 512" version="1.1">
<g id="surface6839746">
<path  style=" stroke:none;fill-rule:nonzero;fill:black;fill-opacity:1;" d="M 104 48 C 73.125 48 48 73.125 48 104 L 48 408 C 48 438.875 73.125 464 104 464 L 408 464 C 438.875 464 464 438.875 464 408 L 464 104 C 464 73.125 438.875 48 408 48 Z M 104 64 L 408 64 C 430.0625 64 448 81.9375 448 104 L 448 408 C 448 430.0625 430.0625 448 408 448 L 104 448 C 81.9375 448 64 430.0625 64 408 L 64 104 C 64 81.9375 81.9375 64 104 64 Z M 96 96 C 91.5625 96 88 99.59375 88 104 L 88 120 C 88 124.40625 91.5625 128 96 128 C 100.4375 128 104 124.40625 104 120 L 104 104 C 104 99.59375 100.4375 96 96 96 Z M 136 96 C 131.5625 96 128 99.59375 128 104 L 128 120 C 128 124.40625 131.5625 128 136 128 C 140.4375 128 144 124.40625 144 120 L 144 104 C 144 99.59375 140.4375 96 136 96 Z M 176 96 C 171.5625 96 168 99.59375 168 104 L 168 120 C 168 124.40625 171.5625 128 176 128 C 180.4375 128 184 124.40625 184 120 L 184 104 C 184 99.59375 180.4375 96 176 96 Z M 216 96 C 211.5625 96 208 99.59375 208 104 L 208 120 C 208 124.40625 211.5625 128 216 128 C 220.4375 128 224 124.40625 224 120 L 224 104 C 224 99.59375 220.4375 96 216 96 Z M 256 96 C 251.5625 96 248 99.59375 248 104 L 248 120 C 248 124.40625 251.5625 128 256 128 C 260.4375 128 264 124.40625 264 120 L 264 104 C 264 99.59375 260.4375 96 256 96 Z M 296 96 C 291.5625 96 288 99.59375 288 104 L 288 120 C 288 124.40625 291.5625 128 296 128 C 300.4375 128 304 124.40625 304 120 L 304 104 C 304 99.59375 300.4375 96 296 96 Z M 336 96 C 331.5625 96 328 99.59375 328 104 L 328 120 C 328 124.40625 331.5625 128 336 128 C 340.4375 128 344 124.40625 344 120 L 344 104 C 344 99.59375 340.4375 96 336 96 Z M 376 96 C 371.5625 96 368 99.59375 368 104 L 368 120 C 368 124.40625 371.5625 128 376 128 C 380.4375 128 384 124.40625 384 120 L 384 104 C 384 99.59375 380.4375 96 376 96 Z M 416 96 C 411.5625 96 408 99.59375 408 104 L 408 120 C 408 124.40625 411.5625 128 416 128 C 420.4375 128 424 124.40625 424 120 L 424 104 C 424 99.59375 420.4375 96 416 96 Z M 156 144 C 136.15625 144 120 160.15625 120 180 C 120 199.84375 136.15625 216 156 216 C 175.84375 216 192 199.84375 192 180 C 192 160.15625 175.84375 144 156 144 Z M 156 157.375 C 168.46875 157.375 178.625 167.53125 178.625 180 C 178.625 192.46875 168.46875 202.625 156 202.625 C 143.53125 202.625 133.375 192.46875 133.375 180 C 133.375 167.53125 143.53125 157.375 156 157.375 Z M 319 219.5 C 300.46875 219.5 285.8125 226.03125 275.46875 234.5 L 275.46875 231.78125 C 275.46875 227.375 271.90625 223.78125 267.46875 223.78125 L 216 223.78125 C 211.59375 223.78125 208 227.375 208 231.78125 L 208 408 C 208 412.40625 211.59375 416 216 416 L 269.625 416 C 274.0625 416 277.625 412.40625 277.625 408 L 277.625 319.09375 C 277.625 292.59375 284.1875 282.75 301.84375 282.75 C 318.84375 282.75 321.71875 294.40625 321.71875 320.53125 L 321.71875 408 C 321.71875 412.40625 325.28125 416 329.71875 416 L 383.375 416 C 387.8125 416 391.375 412.40625 391.375 408 L 391.375 309.78125 C 391.40625 265.15625 382.8125 219.5 319 219.5 Z M 128 224 C 123.5625 224 120 227.59375 120 232 L 120 408 C 120 412.40625 123.5625 416 128 416 L 184 416 C 188.4375 416 192 412.40625 192 408 L 192 232 C 192 227.59375 188.4375 224 184 224 Z M 319 235.5 C 365.96875 235.5 375.40625 263.90625 375.40625 309.78125 L 375.40625 400 L 337.71875 400 L 337.71875 320.5 C 337.71875 301.71875 337.71875 266.71875 301.84375 266.71875 C 261.625 266.71875 261.625 306.125 261.625 319.09375 L 261.625 400 L 224 400 L 224 239.78125 L 259.5 239.78125 L 259.5 255.40625 C 259.5 259.8125 263.78125 263.40625 268.21875 263.40625 C 271.1875 263.40625 273.90625 261.75 275.28125 259.125 C 281.03125 248.21875 295.9375 235.5 319 235.5 Z M 136 240 L 176 240 L 176 400 L 136 400 Z M 136 240 "/>
</g>
</svg>
