<svg height="512" viewBox="0 0 256 256" width="512" xmlns="http://www.w3.org/2000/svg"><g fill="black"><path d="m144.1 155.584h-87.232a2.5 2.5 0 1 1 0-5h87.232a2.5 2.5 0 0 1 0 5z"/><path d="m144.1 175.3h-87.232a2.5 2.5 0 1 1 0-5h87.232a2.5 2.5 0 0 1 0 5z"/><path d="m144.1 195.011h-87.232a2.5 2.5 0 1 1 0-5h87.232a2.5 2.5 0 0 1 0 5z"/></g><path d="m142.548 140.878a2.5 2.5 0 0 1 -2.381-3.264l7.087-22.078a40.758 40.758 0 0 1 -3.809-17.3 41.173 41.173 0 1 1 20.719 35.743l-20.843 6.781a2.516 2.516 0 0 1 -.773.118zm42.079-78.828a36.223 36.223 0 0 0 -36.182 36.182 35.8 35.8 0 0 0 3.735 16.012 2.5 2.5 0 0 1 .139 1.873l-5.9 18.372 17.271-5.618a2.5 2.5 0 0 1 2.079.245 36.184 36.184 0 1 0 18.858-67.066z" fill="black"/><path d="m168.278 145.062a2.5 2.5 0 0 0 -2.5 2.5v10.953h-19.178v-13.067a2.5 2.5 0 1 0 -5 0v66.852c-10.142 8.3-24.958 13.052-40.891 13.052h-.452c-15.933 0-30.749-4.751-40.89-13.051v-66.853a2.5 2.5 0 0 0 -5 0v13.067h-19.177v-37.692a16.1 16.1 0 0 1 16.081-16.081h18.569a31.712 31.712 0 0 0 30.408 21.358h.112a31.717 31.717 0 0 0 30.32-21.357h6.577a2.5 2.5 0 0 0 0-5h-10.048a41.96 41.96 0 1 0 -53.891 0h-22.047a21.105 21.105 0 0 0 -21.081 21.08v91.5a14.583 14.583 0 0 0 28.11 5.467c10.905 8.012 25.946 12.56 41.963 12.56h.452c16.017 0 31.059-4.548 41.964-12.56a14.583 14.583 0 0 0 28.1-5.468v-64.76a2.5 2.5 0 0 0 -2.501-2.5zm-104.978-77.452a36.96 36.96 0 1 1 36.96 36.959 37 37 0 0 1 -36.96-36.959zm36.96 41.959a41.7 41.7 0 0 0 19.565-4.856l5.479.029a26.782 26.782 0 0 1 -24.959 16.358h-.095a26.78 26.78 0 0 1 -25.042-16.357l5.489-.031a41.687 41.687 0 0 0 19.567 4.857zm-55.481 112.342a9.6 9.6 0 0 1 -9.589-9.589v-48.807h19.178v48.807a9.6 9.6 0 0 1 -9.589 9.589zm111.41 0a9.6 9.6 0 0 1 -9.588-9.589v-48.807h19.177v48.807a9.6 9.6 0 0 1 -9.589 9.589z" fill="black"/><path d="m184.833 128.114a7.428 7.428 0 0 1 -5.473-2.262 7.33 7.33 0 0 1 -2.031-5.147 7.49 7.49 0 0 1 1.956-5.122 7.373 7.373 0 0 1 5.548-2.37 7.419 7.419 0 0 1 7.533 7.492 7.275 7.275 0 0 1 -2.144 5.236 7.4 7.4 0 0 1 -5.389 2.173zm0-9.9a2.354 2.354 0 0 0 -1.848.732 2.533 2.533 0 0 0 -.656 1.76 2.389 2.389 0 0 0 .658 1.7 2.428 2.428 0 0 0 1.846.7 2.5 2.5 0 0 0 1.844-.7 2.317 2.317 0 0 0 .689-1.711 2.476 2.476 0 0 0 -.688-1.765 2.44 2.44 0 0 0 -1.845-.717z" fill="black"/><path d="m186.29 111.265h-3.269a5.25 5.25 0 0 1 -5.251-5.343 19.269 19.269 0 0 1 1.282-7.145 20.28 20.28 0 0 1 4.708-6.372 30.223 30.223 0 0 0 2.891-3.069 3.6 3.6 0 0 0 .5-1.015 4.762 4.762 0 0 0 .176-1.43 2.872 2.872 0 0 0 -.418-1.812 1.979 1.979 0 0 0 -1.249-.287c-1.227 0-1.609.355-1.735.472s-.383.358-.4 1.34a5.274 5.274 0 0 1 -5.251 5.164h-3.274a5.255 5.255 0 0 1 -5.252-5.317 14.5 14.5 0 0 1 4.779-11.043 16.05 16.05 0 0 1 11.129-4.061 14.7 14.7 0 0 1 15.444 15.487 17.157 17.157 0 0 1 -1.936 7.975 28.657 28.657 0 0 1 -6.218 7.5c-.026.025-.053.048-.081.071-.615.519-1.322 1.4-1.322 3.633a5.258 5.258 0 0 1 -5.253 5.252zm-.632-31.473a6.324 6.324 0 0 1 4.908 1.88 7.3 7.3 0 0 1 1.759 5.219 9.771 9.771 0 0 1 -.412 2.952 8.608 8.608 0 0 1 -1.175 2.373 34.9 34.9 0 0 1 -3.471 3.753 15.854 15.854 0 0 0 -3.6 4.733 14.492 14.492 0 0 0 -.9 5.305.253.253 0 0 0 .252.258h3.269a.254.254 0 0 0 .253-.253c0-3.237 1-5.664 3.057-7.419a23.916 23.916 0 0 0 5.126-6.087 12.2 12.2 0 0 0 1.374-5.672 10.436 10.436 0 0 0 -2.807-7.654 10.307 10.307 0 0 0 -7.635-2.832 11.209 11.209 0 0 0 -7.777 2.77 9.565 9.565 0 0 0 -3.131 7.393.253.253 0 0 0 .252.258h3.269a.253.253 0 0 0 .252-.248 6.507 6.507 0 0 1 1.992-4.915 7.278 7.278 0 0 1 5.145-1.814z" fill="black"/></svg>